<svg width="230" height="150" viewBox="0 0 230 150" fill="none" xmlns="http://www.w3.org/2000/svg">
<rect width="230" height="150" fill="#2A338E"/>
<path d="M91.704 43V42.68L92.376 42.424C93.0587 42.1467 93.4 41.6027 93.4 40.792V24.088C93.4 23.2347 93.0587 22.6907 92.376 22.456L91.704 22.2V21.88H100.152C102.413 21.88 104.355 22.3067 105.976 23.16C107.619 23.992 108.877 25.1973 109.752 26.776C110.648 28.3333 111.096 30.2107 111.096 32.408C111.096 34.648 110.616 36.5573 109.656 38.136C108.696 39.7147 107.352 40.92 105.624 41.752C103.917 42.584 101.901 43 99.576 43H91.704ZM98.2 42.36H99.576C101.112 42.36 102.349 42.0613 103.288 41.464C104.227 40.8453 104.909 39.8213 105.336 38.392C105.784 36.9413 106.008 34.9573 106.008 32.44C106.008 29.9227 105.784 27.9493 105.336 26.52C104.909 25.0693 104.237 24.0453 103.32 23.448C102.403 22.8293 101.197 22.52 99.704 22.52H98.2V42.36ZM116.718 43.48C115.481 43.48 114.436 43.128 113.582 42.424C112.75 41.72 112.334 40.7067 112.334 39.384C112.334 38.3813 112.846 37.464 113.87 36.632C114.894 35.7787 116.505 35.1387 118.702 34.712C119.044 34.648 119.428 34.584 119.854 34.52C120.281 34.4347 120.729 34.3493 121.198 34.264V31.736C121.198 30.2853 121.017 29.272 120.654 28.696C120.313 28.0987 119.769 27.8 119.022 27.8C118.51 27.8 118.105 27.9707 117.806 28.312C117.508 28.632 117.316 29.1973 117.23 30.008L117.166 30.36C117.124 31.2773 116.9 31.9493 116.494 32.376C116.089 32.8027 115.588 33.016 114.99 33.016C114.436 33.016 113.977 32.8453 113.614 32.504C113.252 32.1627 113.07 31.704 113.07 31.128C113.07 30.2533 113.369 29.5173 113.966 28.92C114.585 28.3227 115.396 27.8747 116.398 27.576C117.401 27.2773 118.489 27.128 119.662 27.128C121.561 27.128 123.022 27.5973 124.046 28.536C125.092 29.4533 125.614 30.9573 125.614 33.048V40.12C125.614 41.08 126.062 41.56 126.958 41.56H127.662L127.95 41.816C127.545 42.328 127.097 42.7227 126.606 43C126.137 43.2773 125.465 43.416 124.59 43.416C123.652 43.416 122.905 43.2027 122.35 42.776C121.817 42.328 121.465 41.7413 121.294 41.016C120.654 41.6987 119.993 42.2853 119.31 42.776C118.649 43.2453 117.785 43.48 116.718 43.48ZM118.67 41.528C119.097 41.528 119.492 41.432 119.854 41.24C120.238 41.0267 120.686 40.7067 121.198 40.28V34.904C120.985 34.9467 120.772 34.9893 120.558 35.032C120.345 35.0747 120.1 35.1173 119.822 35.16C118.841 35.416 118.052 35.8533 117.454 36.472C116.878 37.0693 116.59 37.88 116.59 38.904C116.59 39.7787 116.793 40.44 117.198 40.888C117.604 41.3147 118.094 41.528 118.67 41.528ZM128.546 43V42.68L128.994 42.552C129.741 42.3387 130.114 41.816 130.114 40.984V30.968C130.114 30.4987 130.04 30.1573 129.89 29.944C129.741 29.7093 129.453 29.5493 129.026 29.464L128.546 29.336V29.016L134.018 27.16L134.338 27.48L134.594 29.4C135.341 28.7387 136.184 28.1947 137.122 27.768C138.061 27.3413 138.989 27.128 139.906 27.128C141.314 27.128 142.392 27.512 143.138 28.28C143.906 29.048 144.29 30.2213 144.29 31.8V41.016C144.29 41.848 144.696 42.3707 145.506 42.584L145.794 42.68V43H138.242V42.68L138.658 42.552C139.405 42.3173 139.778 41.7947 139.778 40.984V30.776C139.778 29.4107 139.096 28.728 137.73 28.728C136.792 28.728 135.768 29.1973 134.658 30.136V41.016C134.658 41.848 135.032 42.3707 135.778 42.584L136.066 42.68V43H128.546ZM150.886 25.464C150.161 25.464 149.542 25.24 149.03 24.792C148.54 24.3227 148.294 23.736 148.294 23.032C148.294 22.3067 148.54 21.72 149.03 21.272C149.542 20.824 150.161 20.6 150.886 20.6C151.612 20.6 152.22 20.824 152.71 21.272C153.201 21.72 153.446 22.3067 153.446 23.032C153.446 23.736 153.201 24.3227 152.71 24.792C152.22 25.24 151.612 25.464 150.886 25.464ZM147.11 43V42.68L147.558 42.552C147.985 42.424 148.273 42.232 148.422 41.976C148.593 41.72 148.678 41.3787 148.678 40.952V30.936C148.678 30.488 148.593 30.1573 148.422 29.944C148.273 29.7093 147.985 29.5493 147.558 29.464L147.11 29.368V29.048L152.966 27.16L153.286 27.48L153.19 32.024V40.984C153.19 41.4107 153.265 41.752 153.414 42.008C153.585 42.264 153.873 42.456 154.278 42.584L154.598 42.68V43H147.11ZM164.047 27.128C165.434 27.128 166.618 27.416 167.599 27.992C168.58 28.5467 169.327 29.3147 169.839 30.296C170.372 31.256 170.639 32.3547 170.639 33.592C170.639 33.8267 170.628 34.072 170.607 34.328C170.586 34.5627 170.543 34.776 170.479 34.968H160.943C160.964 37.272 161.37 38.936 162.159 39.96C162.97 40.9627 164.164 41.464 165.743 41.464C166.81 41.464 167.674 41.2933 168.335 40.952C168.996 40.6107 169.615 40.1093 170.191 39.448L170.511 39.736C169.85 40.9093 168.964 41.8267 167.855 42.488C166.767 43.1493 165.455 43.48 163.919 43.48C162.404 43.48 161.06 43.16 159.887 42.52C158.714 41.8587 157.796 40.92 157.135 39.704C156.474 38.488 156.143 37.0373 156.143 35.352C156.143 33.6027 156.527 32.12 157.295 30.904C158.063 29.6667 159.044 28.728 160.239 28.088C161.455 27.448 162.724 27.128 164.047 27.128ZM163.951 27.768C163.332 27.768 162.799 27.96 162.351 28.344C161.924 28.7067 161.583 29.368 161.327 30.328C161.092 31.2667 160.964 32.6 160.943 34.328H166.415C166.628 32.0027 166.543 30.328 166.159 29.304C165.775 28.28 165.039 27.768 163.951 27.768ZM171.83 43V42.68L172.214 42.552C172.982 42.296 173.366 41.7627 173.366 40.952V23.832C173.366 23.4053 173.28 23.0853 173.11 22.872C172.939 22.6373 172.64 22.4667 172.214 22.36L171.798 22.264V21.944L177.654 20.568L178.038 20.856L177.91 25.336V36.28C177.91 37.0693 177.91 37.8587 177.91 38.648C177.931 39.416 177.942 40.184 177.942 40.952C177.942 41.3787 178.027 41.7307 178.198 42.008C178.368 42.264 178.656 42.456 179.062 42.584L179.478 42.68V43H171.83ZM180.986 43V42.68L181.37 42.552C182.138 42.296 182.522 41.7627 182.522 40.952V23.832C182.522 23.4053 182.437 23.0853 182.266 22.872C182.095 22.6373 181.797 22.4667 181.37 22.36L180.954 22.264V21.944L186.81 20.568L187.194 20.856L187.066 25.336V36.28C187.066 37.0693 187.066 37.8587 187.066 38.648C187.087 39.416 187.098 40.184 187.098 40.952C187.098 41.3787 187.183 41.7307 187.354 42.008C187.525 42.264 187.813 42.456 188.218 42.584L188.634 42.68V43H180.986ZM198.078 27.128C199.465 27.128 200.649 27.416 201.63 27.992C202.612 28.5467 203.358 29.3147 203.87 30.296C204.404 31.256 204.67 32.3547 204.67 33.592C204.67 33.8267 204.66 34.072 204.638 34.328C204.617 34.5627 204.574 34.776 204.51 34.968H194.974C194.996 37.272 195.401 38.936 196.19 39.96C197.001 40.9627 198.196 41.464 199.774 41.464C200.841 41.464 201.705 41.2933 202.366 40.952C203.028 40.6107 203.646 40.1093 204.222 39.448L204.542 39.736C203.881 40.9093 202.996 41.8267 201.886 42.488C200.798 43.1493 199.486 43.48 197.95 43.48C196.436 43.48 195.092 43.16 193.918 42.52C192.745 41.8587 191.828 40.92 191.166 39.704C190.505 38.488 190.174 37.0373 190.174 35.352C190.174 33.6027 190.558 32.12 191.326 30.904C192.094 29.6667 193.076 28.728 194.27 28.088C195.486 27.448 196.756 27.128 198.078 27.128ZM197.982 27.768C197.364 27.768 196.83 27.96 196.382 28.344C195.956 28.7067 195.614 29.368 195.358 30.328C195.124 31.2667 194.996 32.6 194.974 34.328H200.446C200.66 32.0027 200.574 30.328 200.19 29.304C199.806 28.28 199.07 27.768 197.982 27.768Z" fill="white"/>
<path d="M19.188 88V87.46L20.268 87.028C20.988 86.776 21.456 86.434 21.672 86.002C21.924 85.57 22.05 85.012 22.05 84.328V56.086C22.05 55.366 21.924 54.79 21.672 54.358C21.456 53.926 20.988 53.584 20.268 53.332L19.188 52.9V52.36H32.904V52.9L31.986 53.278C31.302 53.53 30.834 53.872 30.582 54.304C30.33 54.7 30.204 55.258 30.204 55.978V69.1H43.11V55.978C43.11 55.258 42.984 54.7 42.732 54.304C42.516 53.872 42.048 53.53 41.328 53.278L40.356 52.9V52.36H54.126V52.9L53.046 53.332C52.362 53.584 51.894 53.926 51.642 54.358C51.39 54.79 51.264 55.366 51.264 56.086V84.328C51.264 85.012 51.39 85.57 51.642 86.002C51.894 86.434 52.362 86.776 53.046 87.028L54.126 87.46V88H40.356V87.46L41.328 87.136C42.048 86.848 42.516 86.506 42.732 86.11C42.984 85.678 43.11 85.102 43.11 84.382V70.18H30.204V84.382C30.204 85.714 30.798 86.632 31.986 87.136L32.904 87.46V88H19.188ZM55.7679 88V87.46L57.1179 86.974C57.8379 86.686 58.3959 86.344 58.7919 85.948C59.1879 85.516 59.5119 84.922 59.7639 84.166L70.8879 52.252H75.4779L86.4399 84.382C86.7279 85.174 87.0519 85.786 87.4119 86.218C87.7719 86.614 88.3299 86.956 89.0859 87.244L89.7339 87.46V88H76.0179V87.46L76.8279 87.19C77.5839 86.902 78.0339 86.506 78.1779 86.002C78.3579 85.462 78.3399 84.832 78.1239 84.112L75.5859 76.336H63.5979L61.0059 83.95C60.7539 84.742 60.6639 85.372 60.7359 85.84C60.8439 86.308 61.2759 86.686 62.0319 86.974L63.2199 87.46V88H55.7679ZM63.9759 75.256H75.2619L69.8079 58.462L63.9759 75.256ZM99.6758 88.162L88.1198 55.978C87.8678 55.258 87.5258 54.7 87.0938 54.304C86.6978 53.872 86.1398 53.548 85.4198 53.332L84.1238 52.9V52.36H99.6758V52.9L98.0018 53.386C97.1738 53.602 96.7058 53.98 96.5978 54.52C96.5258 55.06 96.6158 55.726 96.8678 56.518L104.86 80.224L112.906 56.464C113.194 55.636 113.32 54.952 113.284 54.412C113.284 53.872 112.87 53.494 112.042 53.278L110.638 52.9V52.36H118.198V52.9L116.74 53.332C116.056 53.512 115.57 53.836 115.282 54.304C114.994 54.736 114.724 55.312 114.472 56.032L103.672 88.162H99.6758ZM119.647 88V87.46L120.889 86.974C121.501 86.722 121.915 86.398 122.131 86.002C122.383 85.57 122.509 84.994 122.509 84.274V56.086C122.509 55.366 122.401 54.808 122.185 54.412C122.005 53.98 121.573 53.638 120.889 53.386L119.647 52.9V52.36H145.513L145.837 60.676H145.297L142.975 55.6C142.651 54.952 142.309 54.43 141.949 54.034C141.589 53.638 141.049 53.44 140.329 53.44H130.609V69.046H136.387C137.107 69.046 137.647 68.866 138.007 68.506C138.403 68.11 138.745 67.588 139.033 66.94L140.113 64.78H140.653V74.5H140.113L139.033 72.232C138.709 71.584 138.367 71.08 138.007 70.72C137.647 70.324 137.107 70.126 136.387 70.126H130.609V86.92H141.517C142.237 86.92 142.795 86.74 143.191 86.38C143.587 85.984 143.911 85.444 144.163 84.76L146.377 79.684H146.917L146.593 88H119.647ZM150.302 88V87.46L152.084 86.92C152.732 86.74 153.2 86.398 153.488 85.894C153.776 85.354 153.92 84.724 153.92 84.004V58.03C153.524 57.166 153.2 56.518 152.948 56.086C152.732 55.654 152.48 55.294 152.192 55.006C151.904 54.682 151.508 54.286 151.004 53.818L150.086 52.9V52.36H159.644L177.572 76.822V56.464C177.572 55.744 177.446 55.096 177.194 54.52C176.978 53.944 176.51 53.566 175.79 53.386L174.008 52.9V52.36H181.73V52.9L180.272 53.386C179.624 53.602 179.228 53.98 179.084 54.52C178.94 55.06 178.868 55.69 178.868 56.41V88.162H175.844L155.216 59.812V84.004C155.216 84.724 155.324 85.336 155.54 85.84C155.756 86.344 156.206 86.704 156.89 86.92L158.51 87.46V88H150.302ZM195.962 88.972C193.982 88.972 191.966 88.72 189.914 88.216C187.862 87.748 186.152 87.118 184.784 86.326L185.054 78.982H185.594L187.268 82.492C187.772 83.5 188.312 84.4 188.888 85.192C189.464 85.948 190.256 86.542 191.264 86.974C191.984 87.334 192.668 87.586 193.316 87.73C194 87.838 194.756 87.892 195.584 87.892C197.78 87.892 199.508 87.298 200.768 86.11C202.064 84.922 202.712 83.392 202.712 81.52C202.712 79.756 202.28 78.388 201.416 77.416C200.552 76.408 199.166 75.436 197.258 74.5L195.044 73.528C191.948 72.16 189.518 70.594 187.754 68.83C186.026 67.03 185.162 64.654 185.162 61.702C185.162 59.578 185.702 57.742 186.782 56.194C187.898 54.646 189.428 53.458 191.372 52.63C193.352 51.802 195.656 51.388 198.284 51.388C200.192 51.388 201.992 51.64 203.684 52.144C205.412 52.648 206.906 53.332 208.166 54.196L207.842 60.676H207.302L205.088 56.626C204.476 55.366 203.864 54.484 203.252 53.98C202.64 53.44 201.938 53.062 201.146 52.846C200.678 52.702 200.246 52.612 199.85 52.576C199.454 52.504 198.95 52.468 198.338 52.468C196.502 52.468 194.954 53.008 193.694 54.088C192.434 55.132 191.804 56.554 191.804 58.354C191.804 60.19 192.29 61.666 193.262 62.782C194.234 63.862 195.656 64.834 197.528 65.698L200.012 66.778C203.468 68.29 205.952 69.91 207.464 71.638C208.976 73.33 209.732 75.526 209.732 78.226C209.732 81.394 208.526 83.986 206.114 86.002C203.738 87.982 200.354 88.972 195.962 88.972Z" fill="white"/>
<rect x="10.5" y="10.5" width="209" height="129" stroke="white"/>
<line x1="20" y1="97.5" x2="210" y2="97.5" stroke="#02CAFF"/>
<path d="M74.616 127V126.72L75.12 126.552C75.4933 126.421 75.7453 126.244 75.876 126.02C76.0067 125.796 76.072 125.497 76.072 125.124C76.0907 124.004 76.1 122.875 76.1 121.736C76.1 120.597 76.1 119.459 76.1 118.32V117.2C76.1 116.08 76.1 114.96 76.1 113.84C76.1 112.701 76.0907 111.572 76.072 110.452C76.072 110.079 76.016 109.78 75.904 109.556C75.8107 109.332 75.5867 109.155 75.232 109.024L74.616 108.8V108.52H88.168L88.364 113.168H88.084L86.488 110.228C86.3013 109.873 86.0867 109.593 85.844 109.388C85.6013 109.183 85.2653 109.08 84.836 109.08H80.328C80.3093 110.405 80.3 111.759 80.3 113.14C80.3 114.521 80.3 115.893 80.3 117.256H83.212C83.6413 117.256 83.9587 117.163 84.164 116.976C84.3693 116.789 84.5653 116.519 84.752 116.164L85.34 115.1H85.62V120H85.34L84.724 118.936C84.5373 118.6 84.3413 118.329 84.136 118.124C83.9493 117.919 83.6413 117.816 83.212 117.816H80.3C80.3 119.123 80.3 120.373 80.3 121.568C80.3 122.744 80.3093 123.901 80.328 125.04C80.328 125.768 80.6827 126.244 81.392 126.468L82.232 126.72V127H74.616ZM98.173 127.504C97.0343 127.504 95.933 127.299 94.869 126.888C93.8236 126.477 92.881 125.871 92.041 125.068C91.2196 124.247 90.5663 123.229 90.081 122.016C89.5956 120.803 89.353 119.384 89.353 117.76C89.353 116.155 89.5956 114.745 90.081 113.532C90.5663 112.319 91.229 111.311 92.069 110.508C92.909 109.687 93.8516 109.071 94.897 108.66C95.961 108.231 97.053 108.016 98.173 108.016C99.3116 108.016 100.404 108.221 101.449 108.632C102.513 109.024 103.456 109.631 104.277 110.452C105.117 111.255 105.78 112.272 106.265 113.504C106.75 114.717 106.993 116.136 106.993 117.76C106.993 119.347 106.75 120.756 106.265 121.988C105.78 123.201 105.117 124.219 104.277 125.04C103.456 125.843 102.513 126.459 101.449 126.888C100.404 127.299 99.3116 127.504 98.173 127.504ZM98.173 126.916C99.1996 126.916 100.03 126.645 100.665 126.104C101.3 125.544 101.757 124.601 102.037 123.276C102.336 121.932 102.485 120.093 102.485 117.76C102.485 115.408 102.336 113.569 102.037 112.244C101.757 110.9 101.3 109.957 100.665 109.416C100.03 108.856 99.1996 108.576 98.173 108.576C97.165 108.576 96.3436 108.856 95.709 109.416C95.0743 109.957 94.6076 110.9 94.309 112.244C94.029 113.569 93.889 115.408 93.889 117.76C93.889 120.093 94.029 121.932 94.309 123.276C94.6076 124.601 95.0743 125.544 95.709 126.104C96.3436 126.645 97.165 126.916 98.173 126.916ZM107.702 127V126.72L108.29 126.524C108.663 126.393 108.906 126.225 109.018 126.02C109.13 125.796 109.186 125.488 109.186 125.096V110.452C109.186 110.079 109.13 109.789 109.018 109.584C108.925 109.36 108.701 109.183 108.346 109.052L107.702 108.8V108.52H115.71C117.913 108.52 119.602 108.94 120.778 109.78C121.954 110.601 122.542 111.749 122.542 113.224C122.542 114.045 122.234 114.867 121.618 115.688C121.002 116.509 120.031 117.144 118.706 117.592L122.598 125.32C122.766 125.637 122.953 125.899 123.158 126.104C123.382 126.291 123.671 126.459 124.026 126.608L124.39 126.748V127H119.378L115.234 118.18H113.33V125.096C113.33 125.451 113.386 125.74 113.498 125.964C113.61 126.188 113.843 126.356 114.198 126.468L114.87 126.72V127H107.702ZM113.33 117.62H114.674C116.018 117.62 116.989 117.265 117.586 116.556C118.183 115.828 118.482 114.755 118.482 113.336C118.482 111.899 118.202 110.835 117.642 110.144C117.082 109.435 116.139 109.08 114.814 109.08H113.33V117.62ZM133.818 127.504C132.903 127.504 132.194 127.327 131.69 126.972C131.204 126.617 130.962 126.141 130.962 125.544C130.962 125.021 131.139 124.62 131.494 124.34C131.867 124.06 132.296 123.92 132.782 123.92C133.267 123.92 133.696 124.032 134.07 124.256C134.443 124.461 134.788 124.825 135.106 125.348L135.61 126.216C135.703 126.347 135.815 126.412 135.946 126.412C136.095 126.412 136.198 126.328 136.254 126.16C136.366 125.787 136.44 125.245 136.478 124.536C136.534 123.808 136.562 122.931 136.562 121.904C136.562 120.728 136.534 119.216 136.478 117.368C136.422 115.52 136.366 113.243 136.31 110.536C136.31 109.733 136.011 109.229 135.414 109.024L134.77 108.8V108.52H142.106V108.8L141.49 109.024C141.154 109.155 140.92 109.332 140.79 109.556C140.678 109.761 140.622 110.06 140.622 110.452V115.996C140.622 117.825 140.538 119.337 140.37 120.532C140.202 121.727 139.931 122.763 139.558 123.64C139.091 124.891 138.326 125.852 137.262 126.524C136.216 127.177 135.068 127.504 133.818 127.504ZM151.906 127.504C150.487 127.504 149.227 127.252 148.126 126.748C147.043 126.244 146.194 125.451 145.578 124.368C144.981 123.267 144.682 121.82 144.682 120.028V110.368C144.682 109.659 144.318 109.192 143.59 108.968L142.974 108.8V108.52H150.73V108.8L149.918 109.024C149.227 109.192 148.882 109.659 148.882 110.424V120.756C148.882 122.492 149.246 123.78 149.974 124.62C150.702 125.441 151.747 125.852 153.11 125.852C154.529 125.852 155.649 125.413 156.47 124.536C157.31 123.659 157.73 122.417 157.73 120.812V110.536C157.73 110.163 157.665 109.836 157.534 109.556C157.422 109.257 157.179 109.061 156.806 108.968L156.106 108.8V108.52H160.026V108.8L159.27 108.996C158.915 109.071 158.682 109.248 158.57 109.528C158.458 109.808 158.402 110.135 158.402 110.508V120.756C158.402 122.119 158.131 123.313 157.59 124.34C157.049 125.348 156.293 126.132 155.322 126.692C154.351 127.233 153.213 127.504 151.906 127.504ZM160.749 127V126.72L161.337 126.496C161.934 126.253 162.233 125.777 162.233 125.068V110.452C162.233 109.705 161.934 109.229 161.337 109.024L160.749 108.8V108.52H168.141C170.119 108.52 171.818 108.893 173.237 109.64C174.674 110.368 175.775 111.423 176.541 112.804C177.325 114.167 177.717 115.809 177.717 117.732C177.717 119.692 177.297 121.363 176.457 122.744C175.617 124.125 174.441 125.18 172.929 125.908C171.435 126.636 169.671 127 167.637 127H160.749ZM166.433 126.44H167.637C168.981 126.44 170.063 126.179 170.885 125.656C171.706 125.115 172.303 124.219 172.677 122.968C173.069 121.699 173.265 119.963 173.265 117.76C173.265 115.557 173.069 113.831 172.677 112.58C172.303 111.311 171.715 110.415 170.913 109.892C170.11 109.351 169.055 109.08 167.749 109.08H166.433V126.44ZM188.919 127.504C187.015 127.504 185.335 127.112 183.879 126.328C182.441 125.525 181.312 124.396 180.491 122.94C179.688 121.465 179.287 119.729 179.287 117.732C179.287 115.791 179.688 114.092 180.491 112.636C181.293 111.18 182.451 110.051 183.963 109.248C185.493 108.427 187.341 108.016 189.507 108.016C190.496 108.016 191.411 108.128 192.251 108.352C193.109 108.576 193.921 108.903 194.687 109.332L194.799 113.252H194.519L192.951 110.34C192.708 109.873 192.484 109.537 192.279 109.332C192.073 109.127 191.812 108.968 191.495 108.856C191.196 108.763 190.916 108.697 190.655 108.66C190.412 108.604 190.085 108.576 189.675 108.576C188.517 108.576 187.491 108.884 186.595 109.5C185.717 110.116 185.036 111.096 184.551 112.44C184.065 113.784 183.823 115.548 183.823 117.732C183.823 119.897 184.047 121.661 184.495 123.024C184.961 124.387 185.615 125.385 186.455 126.02C187.295 126.636 188.265 126.944 189.367 126.944C189.535 126.944 189.693 126.935 189.843 126.916C190.011 126.879 190.169 126.841 190.319 126.804C190.673 126.748 190.907 126.599 191.019 126.356C191.131 126.113 191.187 125.824 191.187 125.488V119.944C191.187 119.216 190.813 118.768 190.067 118.6L188.779 118.264V117.984H196.675V118.264L196.283 118.376C195.573 118.6 195.219 119.067 195.219 119.776V125.852C194.248 126.393 193.259 126.804 192.251 127.084C191.261 127.364 190.151 127.504 188.919 127.504ZM197.444 127V126.72L198.088 126.468C198.405 126.337 198.62 126.169 198.732 125.964C198.863 125.74 198.928 125.441 198.928 125.068V110.452C198.928 110.079 198.872 109.789 198.76 109.584C198.667 109.36 198.443 109.183 198.088 109.052L197.444 108.8V108.52H210.856L211.024 112.832H210.744L209.54 110.2C209.372 109.864 209.195 109.593 209.008 109.388C208.821 109.183 208.541 109.08 208.168 109.08H203.128V117.172H206.124C206.497 117.172 206.777 117.079 206.964 116.892C207.169 116.687 207.347 116.416 207.496 116.08L208.056 114.96H208.336V120H208.056L207.496 118.824C207.328 118.488 207.151 118.227 206.964 118.04C206.777 117.835 206.497 117.732 206.124 117.732H203.128V126.44H208.784C209.157 126.44 209.447 126.347 209.652 126.16C209.857 125.955 210.025 125.675 210.156 125.32L211.304 122.688H211.584L211.416 127H197.444Z" fill="white"/>
</svg>
